# xmcd CD database file
#
# Track frame offsets:
#	150
#	17513
#	34417
#	53083
#	85375
#	100083
#	125707
#	141938
#	163644
#	181781
#	199601
#	220137
#	238005
#	252876
#	269193
#	284798
#	298564
#
# Disc length: 4415 seconds
#
# Revision: 2
# Processed by: cddbd v1.4PL0 Copyright (c) Steve Scherf et al.
# Submitted via: Feurio! 1.63 - http://www.feurio.com
#
DISCID=06113d11
DTITLE=Blues - Blues (Tenessy) - Part1
DYEAR=1900
DGENRE=
TTITLE0=Track No01
TTITLE1=Track No02
TTITLE2=Track No03
TTITLE3=Track No04
TTITLE4=Track No05
TTITLE5=Track No06
TTITLE6=Track No07
TTITLE7=Track No08
TTITLE8=Track No09
TTITLE9=Track No10
TTITLE10=Track No11
TTITLE11=Track No12
TTITLE12=Track No13
TTITLE13=Track No14
TTITLE14=Track No15
TTITLE15=Track No16
TTITLE16=Track No17
EXTD=
EXTT0=
EXTT1=
EXTT2=
EXTT3=
EXTT4=
EXTT5=
EXTT6=
EXTT7=
EXTT8=
EXTT9=
EXTT10=
EXTT11=
EXTT12=
EXTT13=
EXTT14=
EXTT15=
EXTT16=
PLAYORDER=
